# xmcd
#
# Track frame offsets: 
#        150
#        22607
#        44209
#        65911
#        83678
#        104912
#        119847
#        137751
#        156243
#        171802
#        196171
#        215468
#        233945
#        252040
#        274517
#
# Disc length: 3916 seconds
#
# Revision: 0
# Processed by: cddbd v1.5.2PL0 Copyright (c) Steve Scherf et al.
# Submitted via: ExactAudioCopyFreeDBPlugin 1.0
#
DISCID=dc0f4a0f
DTITLE=好美静 - 许美静
DYEAR=1998
DGENRE=Pop
TTITLE0=宁愿做梦
TTITLE1=蠢女人
TTITLE2=少数
TTITLE3=幸福
TTITLE4=不需再会
TTITLE5=我到底要什么
TTITLE6=单身
TTITLE7=想家的女人
TTITLE8=游戏
TTITLE9=星闪闪
TTITLE10=倾城
TTITLE11=颜色
TTITLE12=只是这人生
TTITLE13=都市夜归人
TTITLE14=如此
EXTD=
EXTT0=
EXTT1=
EXTT2=
EXTT3=
EXTT4=
EXTT5=
EXTT6=
EXTT7=
EXTT8=
EXTT9=
EXTT10=
EXTT11=
EXTT12=
EXTT13=
EXTT14=
PLAYORDER=
